<?xml version="1.0" encoding="utf-8"?>
<!-- Generator: Adobe Illustrator 25.4.1, SVG Export Plug-In . SVG Version: 6.00 Build 0)  -->
<svg version="1.1" id="Layer_1" xmlns="http://www.w3.org/2000/svg" xmlns:xlink="http://www.w3.org/1999/xlink" x="0px" y="0px"
	 width="1024px" height="164px" viewBox="0 0 1024 164" enable-background="new 0 0 1024 164" xml:space="preserve">
<g>
	<g>
		<path fill="#35D86D" d="M54.7,120.3L54.7,120.3c-12.1,0-21.9,9.8-21.9,21.9c0,12.1,9.8,21.9,21.9,21.9h0
			c12.1,0,21.9-9.8,21.9-21.9C76.5,130.1,66.7,120.3,54.7,120.3z"/>
		<path fill="#35D86D" d="M292.8,82.6L254.5,6c-1.9-3.7-5.6-6-9.8-6h-36.9h-32.8L33.2,0C28,0,23.1,3.5,22.1,8.7
			c-1.4,7,3.9,13.2,10.7,13.2l130.8,0c5.3,0,10.1,3.5,11.1,8.7c1.4,7-3.9,13.2-10.7,13.2h-21.9c-6,0-10.9,4.9-10.9,10.9v0
			c0,6,4.9,10.9,10.9,10.9l21.5,0c5.3,0,10.1,3.5,11.1,8.7c1.4,7-3.9,13.2-10.7,13.2l-130.8,0c-5.3,0-10.1,3.5-11.1,8.7
			c-1.4,7,3.9,13.2,10.7,13.2l130.8,0c5.3,0,10.1,3.5,11.1,8.7c1.4,7-3.9,13.2-10.7,13.2H98.4c-6,0-10.9,4.9-10.9,10.9v0
			c0,6,4.9,10.9,10.9,10.9h76.5h19.1c2.8,0,4.8-2.6,4.1-5.3c-1.3-4.8-1-10.2,1.5-15.7c3.4-7.3,10.9-11.9,19-11.9h0.1
			c10.4,0,19.9,7.1,22,17.3c0.7,3.6,0.6,7.1-0.3,10.3c-0.7,2.7,1.3,5.3,4.1,5.3h0h11.2c4.1,0,7.9-2.3,9.8-6l27.3-54.7
			C294.3,89.3,294.3,85.7,292.8,82.6z"/>
		<path fill="#35D86D" d="M10.9,131.2L10.9,131.2c-6,0-10.9,4.9-10.9,10.9s4.9,10.9,10.9,10.9h0c6,0,10.9-4.9,10.9-10.9
			S17,131.2,10.9,131.2z"/>
		<path fill="#35D86D" d="M87.5,65.6h8.2h2.7c6,0,10.9-4.9,10.9-10.9s-4.9-10.9-10.9-10.9h-2.7h-8.2H76.5c-6,0-10.9,4.9-10.9,10.9
			s4.9,10.9,10.9,10.9H87.5z"/>
	</g>
	<g>
		<path d="M382.9,88.4L338.3,2.2c-0.6-1.1-1.7-1.7-2.9-1.7l-39.2,1.2c-2.3,0.1-3.7,2.4-2.7,4.5l70.4,145.1c0.5,1.1,1.6,1.8,2.8,1.8
			h36.9c1.2,0,2.3-0.7,2.8-1.8L477.2,4.5c1-2.1-0.5-4.5-2.8-4.5H436c-1.2,0-2.2,0.6-2.8,1.7l-44.8,86.7
			C387.3,90.6,384,90.6,382.9,88.4z"/>
		<path d="M490.8,153.1h36.8c1.7,0,3.1-1.4,3.1-3.1V3.1c0-1.7-1.4-3.1-3.1-3.1h-36.8c-1.7,0-3.1,1.4-3.1,3.1V150
			C487.7,151.7,489.1,153.1,490.8,153.1z"/>
		<path d="M580.6,55.3c-2.4-4.6-3.7-9.7-3.7-15.3c0-8.6,2.7-15.5,8-20.6c5.3-5.2,12.3-7.7,20.9-7.7c6,0,11.3,1.4,15.9,4.2
			c3.7,2.3,7.1,5.3,10,9.1c1.1,1.4,3.3,1.6,4.6,0.3l3.5-3.3c1.1-1.1,1.3-2.8,0.4-4c-2.1-3.1-4.7-5.7-7.6-8c-3.6-2.8-7.6-5-12.1-6.6
			c-4.5-1.6-9.5-2.4-14.9-2.4c-7.7,0-14.6,1.6-20.6,4.9c-6,3.3-10.7,7.8-14.1,13.5c-3.4,5.7-5.1,12.4-5.1,20
			c0,6.6,1.4,12.8,4.3,18.7c1.1,2.2,2.4,4.4,3.9,6.6c1,1.5,0.5,3.4-1,4.4c-5.9,3.7-10.8,8.6-14.5,14.5c-4.9,7.7-7.3,16-7.3,25
			c0,8.5,2,15.9,5.9,22.4c3.9,6.4,9.4,11.5,16.3,15.3c7,3.7,14.9,5.6,24,5.6c6.2,0,12-0.9,17.5-2.8c5.5-1.9,10.5-4.5,15-7.8
			c2.4-1.8,4.6-3.7,6.5-5.8c1.2-1.3,3.3-1.4,4.5-0.1l13.1,13.5c0.6,0.6,1.4,0.9,2.2,0.9h5.5c2.7,0,4.1-3.3,2.2-5.3l-71.2-73.6
			C587.1,65.1,583,59.8,580.6,55.3z M619,136.1c-6.3,3.6-13.4,5.4-21.3,5.4c-6.9,0-13-1.4-18.4-4.2c-5.4-2.8-9.6-6.6-12.7-11.5
			c-3.1-4.9-4.6-10.5-4.6-17c0-7.7,2-14.8,6.1-21.2c3.1-4.8,6.9-8.8,11.5-11.7c1.2-0.8,2.8-0.6,3.9,0.4c0,0,0,0,0,0l45.7,47.1
			c1.1,1.1,1.2,2.9,0.2,4.1C626.6,130.9,623.1,133.8,619,136.1z"/>
		<path d="M1017.9,46c-4.1-9.3-9.9-17.4-17.3-24.3c-7.5-6.9-16.2-12.2-26.3-16C964.1,1.9,953.1,0,941,0c-12,0-23.1,1.9-33.2,5.7
			c-10.1,3.8-18.9,9.1-26.3,16c-7.5,6.9-13.2,15-17.3,24.2c-4.1,9.2-6.1,19.4-6.1,30.4c0,10.9,2.1,21,6.2,30.4
			c4.2,9.4,10,17.5,17.5,24.4c7.5,6.9,16.3,12.3,26.4,16.1c10.1,3.9,21.2,5.8,33.2,5.8c11.9,0,22.9-1.9,32.9-5.7
			c10-3.8,18.8-9.2,26.2-16.1c7.5-7,13.2-15.1,17.3-24.4c4.1-9.3,6.1-19.4,6.1-30.3C1024,65.5,1022,55.3,1017.9,46z M975.4,97.6
			c-3.2,6.1-7.7,10.8-13.5,14.1c-5.9,3.3-12.8,5-20.9,5c-6,0-11.4-0.9-16.2-2.8c-4.8-1.9-8.9-4.6-12.4-8.1s-6.1-7.8-7.8-12.7
			c-1.8-5-2.7-10.5-2.7-16.8c0-8.1,1.6-15.2,4.7-21.2c3.2-6,7.7-10.6,13.5-13.9C926,38,933,36.4,941,36.4c6,0,11.4,0.9,16.2,2.8
			c4.8,1.9,8.9,4.6,12.4,8.1c3.4,3.5,6.1,7.7,7.8,12.6c1.8,4.9,2.7,10.4,2.7,16.4C980.1,84.5,978.6,91.6,975.4,97.6z"/>
		<path d="M815.7,1.4l-46.5,68.3c-1.2,1.8-3.9,1.8-5.1,0L717.4,1.4c-0.6-0.8-1.5-1.4-2.6-1.4h-26.4c-1.7,0-3.1,1.4-3.1,3.1V150
			c0,1.7,1.4,3.1,3.1,3.1h36.3c1.7,0,3.1-1.4,3.1-3.1V91c0-3.1,3.9-4.3,5.7-1.8l30.5,44.4c1.2,1.8,3.9,1.8,5.1,0l30.5-44.2
			c1.7-2.5,5.7-1.3,5.7,1.8V150c0,1.7,1.4,3.1,3.1,3.1h36.3c1.7,0,3.1-1.4,3.1-3.1V3.1c0-1.7-1.4-3.1-3.1-3.1h-26.4
			C817.3,0,816.3,0.5,815.7,1.4z"/>
	</g>
</g>
<g>
</g>
<g>
</g>
<g>
</g>
<g>
</g>
<g>
</g>
<g>
</g>
<g>
</g>
<g>
</g>
<g>
</g>
<g>
</g>
<g>
</g>
<g>
</g>
<g>
</g>
<g>
</g>
<g>
</g>
</svg>
